Coordinates
version=1
nRows=14
nColumns=36
inDegrees=yes

Units are S.I. units (second, meters, Newtons, ...)
If the header above contains a line with 'inDegrees', this indicates whether rotational values are in degrees (yes) or radians (no).

endheader
time	pelvis_tilt	pelvis_list	pelvis_rotation	pelvis_tx	pelvis_ty	pelvis_tz	hip_flexion_r	hip_adduction_r	hip_rotation_r	knee_angle_r	knee_angle_r_beta	ankle_angle_r	subtalar_angle_r	mtp_angle_r	hip_flexion_l	hip_adduction_l	hip_rotation_l	knee_angle_l	knee_angle_l_beta	ankle_angle_l	subtalar_angle_l	mtp_angle_l	lumbar_extension	lumbar_bending	lumbar_rotation	arm_flex_r	arm_add_r	arm_rot_r	elbow_flex_r	pro_sup_r	arm_flex_l	arm_add_l	arm_rot_l	elbow_flex_l	pro_sup_l
      9.90000000	    -22.20839015	      1.10006268	     -2.63498299	     -0.25288255	      0.82365073	     -0.52668159	     54.80445480	      2.59892484	     -0.72503561	     50.58247971	      0.88283081	     15.74330324	     -7.53446750	     -7.49999987	     52.22056485	    -13.64521952	     -4.48791269	     47.20377989	      0.82386138	     15.54040031	     -3.41431982	     -7.49999987	    -11.95570659	      4.81399212	      1.14557656	     67.76943442	    -12.18091408	     19.29009342	     81.57509337	    100.35598673	     59.30900553	    -13.64815301	      6.12758304	     83.31976792	     93.78564357
      9.91000000	    -21.89025536	      1.11799944	     -2.44247528	     -0.24996189	      0.82890503	     -0.52777403	     53.43243067	      2.26889427	     -0.89785195	     49.15191455	      0.85786274	     15.39008731	     -7.15432424	     -7.49999987	     50.85252685	    -13.22855634	     -4.56463910	     45.66775305	      0.79705265	     15.03547066	     -3.30705811	     -7.49999987	    -11.18230787	      4.95531758	      0.87223935	     66.29362245	    -12.44368936	     19.08494647	     81.49054818	    100.39251863	     57.80706023	    -13.29138567	      5.59821668	     83.22295716	     93.80968745
      9.92000000	    -21.47580718	      1.16145633	     -2.30919793	     -0.24703885	      0.83415001	     -0.52867137	     51.96649174	      1.98520428	     -1.03395852	     47.72179886	      0.83290252	     15.11118624	     -6.76957459	     -7.49999987	     49.37012669	    -12.86005781	     -4.75060363	     44.13402280	      0.77028401	     14.45541805	     -3.33686110	     -7.49999987	    -10.54933809	      5.04270138	      0.62945623	     64.89671579	    -12.72468491	     18.90065523	     81.39847339	    100.41036321	     56.34528360	    -13.00689465	      5.07424949	     83.19821401	     93.85028479
      9.93000000	    -20.93728291	      1.19856850	     -2.35854367	     -0.24416301	      0.83945420	     -0.52892735	     50.37057472	      1.95019893	     -0.92672183	     46.25824868	      0.80735875	     14.78829971	     -6.52357815	     -7.49999987	     47.70241838	    -12.67821515	     -5.05971545	     42.57936893	      0.74315018	     13.86999426	     -3.37112779	     -7.49999987	    -10.11334722	      5.05858959	      0.52881847	     63.58175319	    -12.87243958	     18.63923768	     81.26077306	    100.41304980	     54.97536326	    -12.93384373	      4.77387658	     83.20065924	     93.89756602
      9.94000000	    -20.53651777	      1.18407076	     -2.43862562	     -0.24137478	      0.84437499	     -0.52906778	     48.92773992	      2.00926297	     -0.78576082	     44.76423550	      0.78128330	     14.42591138	     -6.27779186	     -7.49999987	     46.20641474	    -12.57820095	     -5.32731258	     41.04624961	      0.71639220	     13.47088262	     -3.15542123	     -7.49999987	     -9.51001496	      5.14757216	      0.47270365	     62.28027327	    -12.96566975	     18.41482680	     81.09281440	    100.41073954	     53.65655634	    -12.89887559	      4.62564028	     83.06907158	     93.89001188
      9.95000000	    -19.83449004	      1.24960304	     -2.54301445	     -0.23833355	      0.84956685	     -0.52910501	     47.17771698	      1.99626941	     -0.60954701	     43.33988268	      0.75642365	     13.96944501	     -6.24788224	     -7.49999987	     44.37917011	    -12.49582294	     -5.89914622	     39.58217433	      0.69083927	     12.87444256	     -2.95158268	     -7.49999987	     -9.30490682	      5.08873036	      0.44062263	     60.95051847	    -12.89656335	     17.75540600	     81.08897080	    100.45941180	     52.40904585	    -12.62513440	      4.06915105	     83.07003285	     93.88845009
      9.96000000	    -19.41452978	      1.22526889	     -2.54822644	     -0.23550532	      0.85405722	     -0.52942760	     45.74411793	      2.01598602	     -0.46411490	     41.92284816	      0.73169173	     13.56365179	     -6.00824029	     -7.49999987	     42.91462765	    -12.30860364	     -5.98551195	     38.09748144	      0.66492649	     12.45944327	     -2.68946714	     -7.49999987	     -8.70960287	      5.19718800	      0.32642475	     59.66037176	    -13.03395462	     17.47555495	     80.96583074	    100.48130710	     51.15313675	    -12.47050724	      3.74165747	     82.88610123	     93.86780710
      9.97000000	    -19.03884951	      1.17795315	     -2.54050289	     -0.23265975	      0.85825316	     -0.52968506	     44.36288751	      2.01575245	     -0.50078264	     40.51787014	      0.70717024	     13.26856035	     -5.83572698	     -7.49999987	     41.54761240	    -12.16307981	     -6.15200370	     36.67187996	      0.64004505	     12.15926429	     -2.55743281	     -7.49999987	     -8.01694454	      5.27791892	      0.20245200	     58.35287821	    -13.22752259	     17.27104143	     80.78974117	    100.48175930	     49.87505035	    -12.38235461	      3.55401790	     82.75640043	     93.85279355
      9.98000000	    -18.28624512	      1.16111490	     -2.59834337	     -0.22971426	      0.86296360	     -0.52982972	     42.53482797	      2.08283931	     -0.23150968	     39.05142431	      0.68157593	     12.81992877	     -5.82650768	     -7.49999987	     39.68565355	    -11.97616744	     -6.26194861	     35.16783162	      0.61379445	     11.54819383	     -2.54319255	     -7.49999987	     -7.87142633	      5.31395331	      0.11969330	     57.13976616	    -13.28453684	     16.76370105	     80.70814210	    100.48987674	     48.77101921	    -12.14260090	      2.94959930	     82.75617825	     93.84774044
      9.99000000	    -17.78196270	      1.14124693	     -2.65737503	     -0.22688450	      0.86699899	     -0.52991553	     41.01652183	      2.19259809	      0.06339122	     37.63932932	      0.65693022	     12.33663354	     -6.03323526	     -7.49999987	     38.16081081	    -11.82792765	     -6.39378946	     33.75028214	      0.58905355	     11.02286889	     -2.57689540	     -7.49999987	     -7.39305631	      5.34753978	      0.05242277	     55.92317338	    -13.43816371	     16.46948976	     80.60401421	    100.51682858	     47.60695178	    -11.78217570	      2.24721239	     82.71370984	     93.91273713
     10.00000000	    -17.25019418	      1.10050951	     -2.74675716	     -0.22408901	      0.87092913	     -0.52994684	     39.47199708	      2.32880114	      0.36031340	     36.21911913	      0.63214288	     11.91281331	     -6.08312511	     -7.49999987	     36.62260079	    -11.72440868	     -6.54328031	     32.37030898	      0.56496847	     10.59613519	     -2.45890419	     -7.49999987	     -6.94816991	      5.38956372	      0.07112498	     54.76327599	    -13.65739673	     16.24218962	     80.47455568	    100.52260297	     46.52239386	    -11.42255751	      1.70332653	     82.61890908	     93.99220669
     10.01000000	    -16.73672601	      1.02216052	     -2.82851053	     -0.22128667	      0.87464169	     -0.52990752	     37.93678810	      2.50482303	      0.64965243	     34.78609523	      0.60713190	     11.49832534	     -6.16335884	     -7.49999987	     35.11847905	    -11.65397653	     -6.66680383	     30.99651467	      0.54099124	     10.21206421	     -2.36451466	     -7.49999987	     -6.47896087	      5.47062812	      0.06208146	     53.66355027	    -13.88100628	     16.06622830	     80.32765225	    100.52706068	     45.41935243	    -11.34356680	      1.48427569	     82.57799361	     94.08665791
     10.02000000	    -16.27110765	      0.92269955	     -2.85719510	     -0.21852223	      0.87803992	     -0.52995951	     36.45009205	      2.67360164	      0.91934817	     33.36135037	      0.58226541	     11.13977335	     -6.20032891	     -7.49999987	     33.70056693	    -11.56270747	     -6.67050256	     29.64958557	      0.51748289	      9.85932485	     -2.22919184	     -7.49999987	     -5.94886202	      5.71091053	     -0.12350430	     52.72228863	    -13.91764993	     16.07775560	     80.10012869	    100.53923435	     44.20796154	    -11.56575311	      1.33460910	     82.59776044	     94.14689878
     10.03000000	    -15.80857807	      0.81451993	     -2.87730247	     -0.21584023	      0.88121757	     -0.53005052	     34.95582907	      2.90763345	      1.36286888	     31.89590284	      0.55668852	     10.42497559	     -7.07129855	     -7.49999987	     32.32857185	    -11.46852491	     -6.67234792	     28.35134304	      0.49482428	      9.37245096	     -2.45184195	     -7.49999987	     -5.45906811	      6.10231759	     -0.77484708	     52.23606374	    -13.50184018	     16.60205133	     79.39511852	    100.70377399	     42.63877917	    -12.07751869	      0.46449046	     83.16251205	     94.35302398
